<?xml version="1.0" encoding="UTF-8" standalone="no"?>
<!-- Created with Inkscape (http://www.inkscape.org/) -->

<svg
   xmlns:dc="http://purl.org/dc/elements/1.1/"
   xmlns:cc="http://creativecommons.org/ns#"
   xmlns:rdf="http://www.w3.org/1999/02/22-rdf-syntax-ns#"
   xmlns:svg="http://www.w3.org/2000/svg"
   xmlns="http://www.w3.org/2000/svg"
   xmlns:sodipodi="http://sodipodi.sourceforge.net/DTD/sodipodi-0.dtd"
   xmlns:inkscape="http://www.inkscape.org/namespaces/inkscape"
   width="73.017616mm"
   height="21.631599mm"
   viewBox="0 0 73.017617 21.631599"
   version="1.1"
   id="svg8"
   inkscape:version="0.92.3 (unknown)"
   sodipodi:docname="drawing.svg">
  <defs
     id="defs2" />
  <sodipodi:namedview
     id="base"
     pagecolor="#ffffff"
     bordercolor="#666666"
     borderopacity="1.0"
     inkscape:pageopacity="0.0"
     inkscape:pageshadow="2"
     inkscape:zoom="1.4"
     inkscape:cx="146.17123"
     inkscape:cy="-160.50727"
     inkscape:document-units="mm"
     inkscape:current-layer="layer1"
     showgrid="false"
     inkscape:window-width="1533"
     inkscape:window-height="876"
     inkscape:window-x="67"
     inkscape:window-y="24"
     inkscape:window-maximized="1" />
  <metadata
     id="metadata5">
    <rdf:RDF>
      <cc:Work
         rdf:about="">
        <dc:format>image/svg+xml</dc:format>
        <dc:type
           rdf:resource="http://purl.org/dc/dcmitype/StillImage" />
        <dc:title></dc:title>
      </cc:Work>
    </rdf:RDF>
  </metadata>
  <g
     inkscape:label="Layer 1"
     inkscape:groupmode="layer"
     id="layer1"
     transform="translate(37.034283,-175.96067)">
    <g
       id="g924"
       transform="translate(0.75595243,0.37797616)"
       style="fill:#ef3e6b;fill-opacity:1">
      <path
         style="fill:#ef3e6b;fill-opacity:1;stroke-width:0.26458332"
         d="m -27.346576,195.32088 c -8.585798,-7.50817 -9.091886,-8.08193 -10.185408,-11.54728 -0.701884,-2.22425 0.663621,-5.28847 3.115333,-6.99084 1.172538,-0.81417 1.387328,-0.86743 3.4982,-0.86743 2.007967,0 2.42231,0.0898 3.866694,0.83763 l 1.617736,0.83762 1.689556,-0.80847 c 3.177575,-1.52051 6.035359,-1.27096 8.408093,0.73421 2.085947,1.76281 2.759597,5.30915 1.505216,7.92401 -0.627383,1.30783 -2.896515,3.80938 -6.24376,6.88329 -0.948296,0.87086 -2.457504,2.26799 -3.353796,3.10473 -0.896292,0.83675 -1.727758,1.51929 -1.847701,1.51676 -0.119944,-0.003 -1.051517,-0.73343 -2.070163,-1.62423 z m 4.091136,-4.08765 c 0.503874,-0.4212 1.446994,-1.25499 2.095822,-1.85286 l 1.179686,-1.08704 -1.037489,-1.15509 c -0.570619,-0.6353 -1.698995,-1.87254 -2.507502,-2.74942 -0.808508,-0.87688 -2.058664,-2.23403 -2.778125,-3.0159 -1.869745,-2.03194 -2.989964,-2.67946 -4.635448,-2.67946 -1.54079,0 -2.655118,0.62968 -3.291239,1.8598 -0.549358,1.06234 -0.499491,3.12365 0.09902,4.09332 0.540793,0.87616 2.65823,3.07086 6.217023,6.4439 l 2.332304,2.21056 0.704903,-0.651 c 0.387697,-0.35805 1.117165,-0.99561 1.62104,-1.41681 z m 6.669975,-6.58799 c 1.101736,-1.59375 1.036493,-3.13855 -0.193226,-4.5752 -1.030061,-1.2034 -2.48522,-1.77937 -3.744951,-1.48231 -0.929407,0.21917 -2.721892,1.19126 -2.721892,1.47612 0,0.47829 5.129335,5.79246 5.518625,5.71749 0.225918,-0.0435 0.739567,-0.55475 1.141444,-1.1361 z m 10.0827432,8.06582 c -0.3230695,-0.13 -0.6770767,-0.56894 -0.786683,-0.97542 -0.2636785,-0.97786 -0.2637896,-10.2541 -1.376e-4,-11.51761 0.2324576,-1.11403 0.9639194,-1.65171 1.9203909,-1.41166 1.0455301,0.26242 1.1874606,0.9417 1.1950435,5.71946 0.00394,2.48469 0.073004,4.68918 0.1534689,4.89887 0.1143159,0.2979 0.7437518,0.38126 2.878897,0.38126 3.7631821,0 4.6423131,0.4049 4.2523781,1.95852 -0.1007559,0.40145 -0.4658016,0.7413 -0.9940581,0.92545 -0.9893829,0.3449 -7.7733315,0.36153 -8.6192997,0.0211 z m 15.3398224,-0.40721 c -2.7649726,-1.37784 -4.1371177,-3.57425 -4.1225127,-6.59894 0.033049,-6.84451 8.2664011,-9.85062 13.1163301,-4.78896 1.197158,1.24943 2.050632,3.26716 2.050632,4.84798 0,2.70708 -2.264294,5.83204 -4.894792,6.75531 -1.998951,0.70161 -4.484153,0.61457 -6.1496574,-0.21539 z m 5.2048094,-2.96133 c 1.228656,-0.6265 1.902508,-1.62164 2.063149,-3.04684 0.178779,-1.58612 -0.315216,-2.96969 -1.338222,-3.74809 -3.519385,-2.67785 -8.1574779,0.89464 -6.4287617,4.95176 0.4178829,0.98073 1.3839243,1.9317 2.1507657,2.11721 1.165752,0.28201 2.6937,0.16417 3.553069,-0.27404 z m 12.863928,2.5471 c -0.707297,-0.84058 -3.527658,-6.47233 -4.759404,-9.50368 -1.02634,-2.52584 -0.843468,-3.69248 0.578792,-3.69248 0.951571,0 1.760169,1.08341 3.568504,4.7813 0.911688,1.86433 1.717143,3.39486 1.789904,3.40118 0.366863,0.0319 0.803108,-0.66083 2.392029,-3.79828 1.849366,-3.65172 2.65893,-4.56839 3.785013,-4.28576 1.124135,0.28214 1.161396,1.06552 0.165213,3.47343 -1.013124,2.44886 -4.538734,9.44127 -4.985705,9.88824 -0.807323,0.80732 -1.71223,0.71308 -2.534346,-0.26395 z"
         id="path930"
         inkscape:connector-curvature="0" />
      <path
         style="fill:#ef3e6b;fill-opacity:1;stroke-width:0.26458332"
         d="m -25.929731,196.77015 c -0.197182,-0.23817 -1.547336,-1.45605 -3.000344,-2.70642 -4.998165,-4.30111 -7.186897,-6.62499 -8.066197,-8.56424 -0.956662,-2.10987 -1.026251,-3.59165 -0.253354,-5.39474 0.800847,-1.8683 1.597559,-2.78641 3.152286,-3.6326 1.276118,-0.69455 1.548708,-0.74309 3.537545,-0.6299 1.671163,0.0951 2.493604,0.29141 3.663807,0.87449 l 1.508921,0.75184 1.533787,-0.76418 c 1.150049,-0.57299 2.017775,-0.79129 3.468267,-0.87251 2.572261,-0.14404 3.895624,0.36833 5.467848,2.11702 2.049714,2.27978 2.471703,5.12436 1.145759,7.72343 -0.533929,1.04659 -4.193065,4.85649 -8.499766,8.84998 -2.822409,2.61715 -3.173962,2.83314 -3.658559,2.24783 z m 3.345655,-6.27644 c 1.164167,-1.00934 2.148453,-1.96395 2.187302,-2.12136 0.155081,-0.62833 -7.571557,-8.78501 -8.81333,-9.30385 -3.476703,-1.45266 -6.646688,2.03259 -4.902602,5.39018 0.469339,0.90354 4.192162,4.72285 7.244534,7.4323 1.455861,1.2923 1.016791,1.43551 4.284096,-1.39727 z m 5.462058,-5.25182 c 1.394314,-1.59688 1.613858,-3.29554 0.615771,-4.76435 -0.824237,-1.21298 -1.879683,-1.78408 -3.297105,-1.78408 -1.185182,0 -3.180917,0.87735 -3.17197,1.39444 0.0031,0.17894 0.780635,1.15879 1.727865,2.17743 0.947229,1.01865 2.03039,2.23904 2.407023,2.71198 0.811429,1.01892 1.03034,1.05262 1.718416,0.26458 z m 26.7727785,7.51389 c -2.4577437,-0.84934 -4.0627883,-2.44796 -4.7498292,-4.73083 -1.0835058,-3.60021 0.4845129,-7.35549 3.7354035,-8.946 1.1722338,-0.57352 1.8210772,-0.70887 3.3981632,-0.70887 2.293151,0 3.790788,0.56137 5.416902,2.03047 4.414266,3.98802 2.470695,11.06755 -3.4417,12.5365 -1.69087,0.4201 -2.745658,0.37624 -4.3589395,-0.18127 z m 4.3527455,-3.47587 c 0.865264,-0.39271 1.25512,-0.78257 1.647835,-1.64783 0.591236,-1.30266 0.630288,-1.80575 0.24724,-3.18504 -0.546362,-1.96737 -2.805919,-3.19179 -4.792049,-2.59673 -3.1017868,0.92932 -4.0483495,4.52381 -1.7975338,6.826 1.1955808,1.22287 2.8588868,1.43673 4.6945078,0.6036 z m -20.9578689,3.28567 c -0.6664458,-0.66645 -0.7245351,-1.32543 -0.6341666,-7.194 0.077478,-5.03121 0.1340855,-5.61883 0.5897324,-6.12178 0.6454934,-0.7125 1.7858582,-0.71285 2.4302933,-7.6e-4 0.447286,0.49424 0.5134372,1.09307 0.5991833,5.42395 l 0.09639,4.86838 h 1.9184356 c 2.7535294,0 4.2685442,0.25972 4.8894763,0.83821 0.7117821,0.66313 0.6845168,1.1604 -0.1070319,1.95194 -0.6369579,0.63696 -0.7331498,0.64944 -5.0081843,0.64944 -3.6079563,0 -4.4302999,-0.0716 -4.7741281,-0.41538 z m 33.8341419,-0.49984 c -0.604194,-0.6042 -2.543259,-4.43566 -4.625136,-9.13895 -0.87354,-1.97347 -1.120058,-3.49055 -0.640072,-3.93901 0.138245,-0.12917 0.511233,-0.31324 0.828863,-0.40906 0.984522,-0.29698 2.063284,1.02937 3.923586,4.82411 0.94875,1.93532 1.838788,3.44843 1.977858,3.36248 0.13907,-0.0859 0.499626,-0.71689 0.801235,-1.40208 0.301609,-0.6852 1.162312,-2.35643 1.912673,-3.71385 1.579549,-2.85744 2.438784,-3.54798 3.527301,-2.83475 0.407067,0.26672 0.641297,0.67198 0.641297,1.10955 0,1.26256 -4.460272,10.92529 -5.630021,12.19688 -0.732333,0.79609 -1.889734,0.77253 -2.717584,-0.0553 z"
         id="path928"
         inkscape:connector-curvature="0" />
      <path
         style="fill:#ef3e6b;fill-opacity:1;stroke-width:0.26458332"
         d="m -29.86501,193.3732 c -5.302523,-4.67065 -6.135663,-5.56628 -7.144753,-7.68064 -1.484028,-3.1095 -0.817645,-6.40147 1.708897,-8.44207 1.709026,-1.38031 2.253162,-1.57672 4.382415,-1.58187 1.683834,-0.004 2.25529,0.12254 3.773146,0.83598 l 1.788771,0.84079 1.621185,-0.7667 c 0.891651,-0.42168 2.246915,-0.84488 3.011698,-0.94043 5.441823,-0.67991 9.451645,5.00867 7.040886,9.98863 -0.323808,0.6689 -1.566101,2.21642 -2.760651,3.43893 -2.739642,2.80378 -8.534265,8.14847 -8.834431,8.14847 -0.124537,0 -2.18876,-1.72849 -4.587163,-3.84109 z m 8.435018,-4.00361 1.208302,-1.09783 -2.045691,-2.25329 c -4.693036,-5.16928 -6.356838,-6.72997 -7.551597,-7.08356 -3.038063,-0.89913 -5.687792,2.20681 -4.37322,5.12617 0.483187,1.07305 3.162213,3.94505 6.791124,7.28031 l 1.797586,1.65213 1.482597,-1.26305 c 0.815428,-0.69468 2.026333,-1.75708 2.690899,-2.36088 z m 4.500191,-4.47496 c 0.717651,-0.91234 1.178084,-2.38498 0.985542,-3.15212 -0.376653,-1.50071 -2.332461,-3.04905 -3.851436,-3.04905 -0.917314,0 -3.185256,0.98086 -3.185256,1.3776 0,0.40701 4.793802,5.50156 5.176787,5.50156 0.187581,0 0.581044,-0.30509 0.874363,-0.67799 z m 26.740989,8.00559 C 8.3111301,192.47604 7.1930935,191.69289 6.0362637,190.256 4.878193,188.81758 4.5343828,187.74647 4.5415266,185.59929 c 0.00958,-2.8801 1.4616801,-5.22676 4.0714137,-6.57961 1.1206269,-0.58092 1.7021067,-0.69944 3.4634017,-0.70591 2.333863,-0.009 3.659444,0.46671 5.466231,1.95987 3.114085,2.57354 3.127745,8.15258 0.02663,10.8754 -2.01064,1.76536 -5.178862,2.48051 -7.758012,1.75118 z m 4.034795,-3.52355 c 0.2457,-0.0689 0.811247,-0.54036 1.256771,-1.04779 0.701961,-0.79948 0.809914,-1.12435 0.809056,-2.43473 -0.0017,-2.5705 -1.360945,-4.02569 -3.760311,-4.02569 -2.3030921,0 -3.9116159,1.60852 -3.9116159,3.91161 0,3.01857 2.3314739,4.51433 5.6060999,3.5966 z m -20.9519337,3.07512 c -0.497168,-0.49717 -0.5291667,-0.88195 -0.5291667,-6.36314 0,-6.07811 0.1633273,-7.09666 1.2018646,-7.49519 0.6707743,-0.2574 1.6917167,0.10595 2.0392284,0.72574 0.1962971,0.35011 0.3696891,2.37564 0.4560412,5.32738 l 0.1393243,4.7625 2.91041673,0.13717 c 2.92976307,0.13808 3.90114377,0.41548 4.20220527,1.20004 0.2693167,0.70183 0.1909048,1.04705 -0.376055,1.65561 -0.5140061,0.55172 -0.7513108,0.57906 -5.0270835,0.57906 -4.1348317,0 -4.5292064,-0.0416 -5.0167753,-0.52917 z m 34.4281977,0.19117 c -0.451413,-0.21684 -1.293452,-1.66341 -2.981346,-5.12177 -3.304019,-6.76967 -3.614798,-7.78364 -2.65258,-8.65443 1.314286,-1.18942 2.43649,-0.14148 4.713737,4.40179 0.948828,1.89298 1.813828,3.3119 1.962844,3.2198 0.146536,-0.0906 0.92656,-1.49451 1.733386,-3.11988 2.231945,-4.49632 3.107579,-5.40289 4.499165,-4.65814 0.939234,0.50266 0.812951,1.74867 -0.477774,4.71417 -2.329164,5.35136 -4.172934,8.74341 -4.979146,9.16032 -0.887704,0.45905 -0.977665,0.46193 -1.818286,0.0581 z"
         id="path926"
         inkscape:connector-curvature="0" />
    </g>
  </g>
</svg>
